<svg width="253" height="38" viewBox="0 0 253 38" fill="none" xmlns="http://www.w3.org/2000/svg">
<g clip-path="url(#clip0_140_85)">
<path d="M18.2451 15.3703C18.2451 15.1106 18.3931 14.878 18.6254 14.7726L34.0444 7.78026C34.6492 7.50598 35.2526 8.21293 34.8917 8.77303L19.4737 32.7031C19.115 33.2599 18.2462 32.9803 18.2461 32.308L18.2451 15.3703Z" fill="black"/>
<path d="M16.7553 15.3703C16.7553 15.1106 16.6073 14.878 16.375 14.7726L0.956043 7.78026C0.351225 7.50598 -0.252174 8.21293 0.108694 8.77303L15.5267 32.7031C15.8854 33.2599 16.7542 32.9803 16.7543 32.308L16.7553 15.3703Z" fill="black"/>
<path d="M17.7827 13.5586C17.6011 13.6413 17.3913 13.6413 17.2097 13.5586L1.18823 6.26202C0.530807 5.96262 0.749327 5 1.47472 5L33.5177 5C34.2431 5 34.4616 5.96262 33.8042 6.26202L17.7827 13.5586Z" fill="black"/>
</g>
<path d="M48.7031 30V7.45312H64.0469V12.0625H54.4375V17.2031H63.1719V21.5938H54.4375V30H48.7031ZM66.2344 30V12.9844H71.7812V16H71.8906C72.1302 14.9167 72.5729 14.0833 73.2188 13.5C73.875 12.9167 74.7083 12.625 75.7188 12.625C75.9792 12.625 76.2292 12.6458 76.4688 12.6875C76.7188 12.7188 76.9479 12.7708 77.1562 12.8438V17.5938C76.9271 17.4896 76.6562 17.4115 76.3438 17.3594C76.0417 17.3073 75.724 17.2812 75.3906 17.2812C74.6094 17.2812 73.9479 17.4219 73.4062 17.7031C72.875 17.9844 72.4688 18.401 72.1875 18.9531C71.9167 19.4948 71.7812 20.1667 71.7812 20.9688V30H66.2344ZM83.5 30.2344C82.3646 30.2344 81.3646 30.0156 80.5 29.5781C79.6354 29.1302 78.9583 28.5208 78.4688 27.75C77.9896 26.9688 77.75 26.0833 77.75 25.0938V25.0781C77.75 24.0052 78.0156 23.0938 78.5469 22.3438C79.0885 21.5938 79.8698 21.0052 80.8906 20.5781C81.9115 20.1406 83.151 19.875 84.6094 19.7812L91.4219 19.3438V22.5625L85.5 22.9688C84.7292 23.0104 84.151 23.1875 83.7656 23.5C83.3802 23.8021 83.1875 24.2083 83.1875 24.7188V24.7344C83.1875 25.2656 83.3906 25.6771 83.7969 25.9688C84.2135 26.25 84.7604 26.3906 85.4375 26.3906C86.0312 26.3906 86.5521 26.2865 87 26.0781C87.4583 25.8594 87.8177 25.5625 88.0781 25.1875C88.349 24.8021 88.4844 24.375 88.4844 23.9062V18.6875C88.4844 18.0729 88.2865 17.5885 87.8906 17.2344C87.4948 16.8698 86.9167 16.6875 86.1562 16.6875C85.4062 16.6875 84.8177 16.8385 84.3906 17.1406C83.9635 17.4427 83.7031 17.8125 83.6094 18.25L83.5781 18.4062H78.5781L78.5938 18.2031C78.6875 17.0885 79.0521 16.1146 79.6875 15.2812C80.3229 14.4479 81.2083 13.7969 82.3438 13.3281C83.4896 12.8594 84.8542 12.625 86.4375 12.625C87.9583 12.625 89.2865 12.8646 90.4219 13.3438C91.5677 13.8229 92.4531 14.4948 93.0781 15.3594C93.7135 16.224 94.0312 17.2292 94.0312 18.375V30H88.4844V27.5938H88.375C88.0521 28.1458 87.651 28.6198 87.1719 29.0156C86.6927 29.4115 86.1458 29.7135 85.5312 29.9219C84.9167 30.1302 84.2396 30.2344 83.5 30.2344ZM105 35.8281C103.365 35.8281 101.938 35.6094 100.719 35.1719C99.5104 34.7344 98.5521 34.1354 97.8438 33.375C97.1354 32.6146 96.7188 31.7604 96.5938 30.8125L96.5781 30.6719H101.938L101.969 30.7656C102.115 31.0885 102.443 31.3958 102.953 31.6875C103.464 31.9792 104.156 32.125 105.031 32.125C106.073 32.125 106.854 31.8906 107.375 31.4219C107.906 30.9531 108.172 30.3385 108.172 29.5781V26.75H108.062C107.792 27.3333 107.406 27.8333 106.906 28.25C106.406 28.6667 105.818 28.9896 105.141 29.2188C104.464 29.4479 103.714 29.5625 102.891 29.5625C101.474 29.5625 100.26 29.2344 99.25 28.5781C98.25 27.9219 97.4844 26.9792 96.9531 25.75C96.4219 24.5104 96.1562 23.0156 96.1562 21.2656V21.25C96.1562 19.4062 96.4271 17.849 96.9688 16.5781C97.5104 15.2969 98.2865 14.3177 99.2969 13.6406C100.307 12.9635 101.531 12.625 102.969 12.625C103.771 12.625 104.5 12.7604 105.156 13.0312C105.823 13.2917 106.401 13.6667 106.891 14.1562C107.38 14.6458 107.766 15.2292 108.047 15.9062H108.172V12.9844H113.719V29.5156C113.719 30.7552 113.365 31.849 112.656 32.7969C111.948 33.7448 110.943 34.4844 109.641 35.0156C108.339 35.5573 106.792 35.8281 105 35.8281ZM105 25.7188C105.646 25.7188 106.208 25.5469 106.688 25.2031C107.167 24.8594 107.536 24.3698 107.797 23.7344C108.068 23.0885 108.203 22.3229 108.203 21.4375V21.4219C108.203 20.526 108.068 19.7604 107.797 19.125C107.526 18.4792 107.151 17.9896 106.672 17.6562C106.203 17.3125 105.646 17.1406 105 17.1406C104.354 17.1406 103.786 17.3125 103.297 17.6562C102.818 17.9896 102.443 18.474 102.172 19.1094C101.911 19.7448 101.781 20.5104 101.781 21.4062V21.4219C101.781 22.3073 101.911 23.0729 102.172 23.7188C102.432 24.3646 102.807 24.8594 103.297 25.2031C103.786 25.5469 104.354 25.7188 105 25.7188ZM116.422 30V12.9844H121.969V16.0469H122.078C122.411 15.0052 123.005 14.1771 123.859 13.5625C124.714 12.9375 125.724 12.625 126.891 12.625C127.703 12.625 128.427 12.7708 129.062 13.0625C129.698 13.3438 130.229 13.7552 130.656 14.2969C131.083 14.8281 131.375 15.4844 131.531 16.2656H131.641C131.859 15.526 132.219 14.8854 132.719 14.3438C133.229 13.8021 133.839 13.3802 134.547 13.0781C135.266 12.776 136.047 12.625 136.891 12.625C138.005 12.625 138.979 12.8698 139.812 13.3594C140.646 13.8385 141.297 14.5156 141.766 15.3906C142.234 16.2552 142.469 17.2656 142.469 18.4219V30H136.922V19.8438C136.922 19.25 136.833 18.7552 136.656 18.3594C136.479 17.9531 136.214 17.651 135.859 17.4531C135.505 17.2448 135.062 17.1406 134.531 17.1406C134.042 17.1406 133.609 17.2552 133.234 17.4844C132.87 17.7135 132.589 18.0312 132.391 18.4375C132.193 18.8438 132.094 19.3333 132.094 19.9062V30H126.797V19.7969C126.797 19.2135 126.703 18.7292 126.516 18.3438C126.339 17.9479 126.073 17.651 125.719 17.4531C125.375 17.2448 124.948 17.1406 124.438 17.1406C123.938 17.1406 123.5 17.2604 123.125 17.5C122.76 17.7292 122.474 18.0521 122.266 18.4688C122.068 18.8854 121.969 19.375 121.969 19.9375V30H116.422ZM153.203 30.3594C151.411 30.3594 149.87 30.0052 148.578 29.2969C147.286 28.5781 146.292 27.5573 145.594 26.2344C144.906 24.9115 144.562 23.3333 144.562 21.5V21.4844C144.562 19.6615 144.906 18.0885 145.594 16.7656C146.292 15.4427 147.271 14.4219 148.531 13.7031C149.802 12.9844 151.297 12.625 153.016 12.625C154.734 12.625 156.224 12.9792 157.484 13.6875C158.745 14.3854 159.719 15.375 160.406 16.6562C161.094 17.9271 161.438 19.4219 161.438 21.1406V22.7656H147.281V19.4844H158.844L156.266 22.5625V20.4219C156.266 19.599 156.135 18.901 155.875 18.3281C155.615 17.7448 155.25 17.3073 154.781 17.0156C154.312 16.7135 153.766 16.5625 153.141 16.5625C152.516 16.5625 151.964 16.7135 151.484 17.0156C151.016 17.3177 150.651 17.7604 150.391 18.3438C150.13 18.9167 150 19.6094 150 20.4219V22.5781C150 23.3802 150.13 24.0677 150.391 24.6406C150.661 25.2135 151.042 25.6562 151.531 25.9688C152.031 26.2708 152.625 26.4219 153.312 26.4219C153.906 26.4219 154.411 26.3281 154.828 26.1406C155.245 25.9531 155.573 25.724 155.812 25.4531C156.062 25.1823 156.229 24.9271 156.312 24.6875L156.328 24.625H161.328L161.281 24.8125C161.156 25.4062 160.917 26.026 160.562 26.6719C160.208 27.3073 159.714 27.9062 159.078 28.4688C158.453 29.0312 157.656 29.4896 156.688 29.8438C155.729 30.1875 154.568 30.3594 153.203 30.3594ZM163.578 30V12.9844H169.125V15.9844H169.234C169.672 14.9115 170.323 14.0833 171.188 13.5C172.052 12.9167 173.125 12.625 174.406 12.625C176.281 12.625 177.724 13.1927 178.734 14.3281C179.755 15.4531 180.266 17.026 180.266 19.0469V30H174.719V20.2344C174.719 19.2656 174.49 18.5104 174.031 17.9688C173.573 17.4167 172.891 17.1406 171.984 17.1406C171.401 17.1406 170.896 17.276 170.469 17.5469C170.042 17.8177 169.708 18.1927 169.469 18.6719C169.24 19.151 169.125 19.7083 169.125 20.3438V30H163.578ZM190.25 30.3594C188.198 30.3594 186.682 29.9531 185.703 29.1406C184.734 28.3177 184.25 26.9479 184.25 25.0312V17.0469H181.938V12.9844H184.25V9.0625H189.812V12.9844H192.859V17.0469H189.812V24.2812C189.812 25.0104 189.979 25.5312 190.312 25.8438C190.646 26.1458 191.146 26.2969 191.812 26.2969C192.042 26.2969 192.234 26.2917 192.391 26.2812C192.547 26.2604 192.703 26.2396 192.859 26.2188V30.1562C192.557 30.2083 192.193 30.2552 191.766 30.2969C191.339 30.3385 190.833 30.3594 190.25 30.3594ZM200.484 30L208.078 7.45312H213.359V12.3594H211.531L206.516 30H200.484ZM204.922 25.0625L206.203 20.9219H216.984L218.266 25.0625H204.922ZM216.672 30L211.641 12.3594V7.45312H215.109L222.703 30H216.672ZM227.75 23.4062V19.0625H233.094C234.302 19.0625 235.245 18.7552 235.922 18.1406C236.609 17.526 236.953 16.6354 236.953 15.4688V15.4375C236.953 14.2604 236.609 13.3698 235.922 12.7656C235.245 12.1615 234.302 11.8594 233.094 11.8594H227.75V7.45312H234.469C236.146 7.45312 237.604 7.78646 238.844 8.45312C240.083 9.10938 241.042 10.0365 241.719 11.2344C242.406 12.4219 242.75 13.8229 242.75 15.4375V15.4688C242.75 17.0729 242.406 18.474 241.719 19.6719C241.042 20.8594 240.083 21.7812 238.844 22.4375C237.604 23.0833 236.146 23.4062 234.469 23.4062H227.75ZM224.859 30V7.45312H230.594V30H224.859ZM245.297 30V7.45312H251.031V30H245.297Z" fill="black"/>
<defs>
<clipPath id="clip0_140_85">
<rect width="35" height="28" fill="white" transform="translate(0 5)"/>
</clipPath>
</defs>
</svg>
